<svg xmlns="http://www.w3.org/2000/svg" width="48" height="48" id="player"><g color="#000" transform="translate(0 -1004.362)"><circle style="isolation:auto;mix-blend-mode:normal;solid-color:#000;solid-opacity:1" cx="-20.532" cy="1028.437" r="24" fill="#386c9d" overflow="visible" transform="scale(-1 1) rotate(.193)"></circle><path fill="#5d93c6" style="isolation:auto;mix-blend-mode:normal;solid-color:#000;solid-opacity:1" d="M1.74 1029.324c1.3-12.495 14.38-23.088 23.527-23.289-13.255.045-23.571 10.034-23.527 23.289z" overflow="visible"></path><path fill="#273b7a" style="line-height:normal;text-indent:0;text-align:start;text-decoration-line:none;text-decoration-style:solid;text-decoration-color:#000;text-transform:none;block-progression:tb;white-space:normal;isolation:auto;mix-blend-mode:normal;solid-color:#000;solid-opacity:1" d="M18.957 1017.519c-.224.01-.427.244-.426.578l.002 10.265.002 10.266c0 .105.022.197.057.28.013.03.032.05.049.075.021.035.04.078.066.106l12.229 12.226a24 24 0 0 0 13.939-11.14l-12.277-12.278a.459.459 0 0 0-.043-.039l-6.688-5.13-6.685-5.131a.367.367 0 0 0-.225-.078z" font-family="sans-serif" font-weight="400"></path><path fill="#ffc91b" d="M18.957 1017.519c.075 0 .152.023.225.078l6.685 5.13 6.688 5.131c.168.13.252.394.203.645a.583.583 0 0 1-.205.355l-6.684 5.133-6.683 5.137c-.29.221-.65-.057-.65-.5l-.003-10.266-.002-10.265c0-.334.202-.573.426-.579z" font-family="sans-serif" font-weight="400" overflow="visible" style="line-height:normal;text-indent:0;text-align:start;text-decoration-line:none;text-decoration-style:solid;text-decoration-color:#000;text-transform:none;block-progression:tb;white-space:normal;isolation:auto;mix-blend-mode:normal;solid-color:#000;solid-opacity:1"></path><path fill="#fde085" d="M18.957 1017.519c-.224.01-.427.244-.426.578l.002 10.265h14.24c0-.202-.082-.399-.218-.504l-6.688-5.13-6.685-5.131a.367.367 0 0 0-.225-.078z" overflow="visible" style="isolation:auto;mix-blend-mode:normal;solid-color:#000;solid-opacity:1"></path></g></svg>