<svg xmlns="http://www.w3.org/2000/svg" width="48" height="48" id="player"><g color="#000" transform="translate(0 -1004.362)"><circle style="isolation:auto;mix-blend-mode:normal;solid-color:#000;solid-opacity:1" cx="-20.532" cy="1028.437" r="24" fill="#386c9d" overflow="visible" transform="scale(-1 1) rotate(.193)"></circle><path fill="#5d93c6" style="isolation:auto;mix-blend-mode:normal;solid-color:#000;solid-opacity:1" d="M1.74 1029.324c1.3-12.495 14.38-23.088 23.527-23.289-13.255.045-23.571 10.034-23.527 23.289z" overflow="visible"></path><path fill="#273b7a" style="line-height:normal;text-indent:0;text-align:start;text-decoration-line:none;text-decoration-style:solid;text-decoration-color:#000;text-transform:none;block-progression:tb;white-space:normal;isolation:auto;mix-blend-mode:normal;solid-color:#000;solid-opacity:1" d="M18.893 1017.161a1.834 1.834 0 0 0-1.827 1.828v18.748a1.848 1.848 0 0 0 .537 1.291l12.526 12.526a24 24 0 0 0 17.049-17.075l-16.782-16.78a1.825 1.825 0 0 0-1.289-.538h-1.636a1.838 1.838 0 0 0-1.826 1.828v2.535l-3.827-3.826a1.808 1.808 0 0 0-1.29-.537h-1.635z" font-family="sans-serif" font-weight="400"></path><path fill="#ffc91b" d="M18.893 1017.161h1.636c1.004 0 1.826.825 1.826 1.828v18.748a1.834 1.834 0 0 1-1.826 1.828h-1.636a1.834 1.834 0 0 1-1.827-1.828v-18.748c0-1.003.823-1.828 1.827-1.828zm8.578 0h1.636c1.004 0 1.827.825 1.827 1.828v18.748a1.834 1.834 0 0 1-1.827 1.828h-1.636a1.834 1.834 0 0 1-1.826-1.828v-18.748c0-1.003.822-1.828 1.826-1.828z" font-family="sans-serif" font-weight="400" overflow="visible" style="line-height:normal;text-indent:0;text-align:start;text-decoration-line:none;text-decoration-style:solid;text-decoration-color:#000;text-transform:none;block-progression:tb;white-space:normal;isolation:auto;mix-blend-mode:normal;solid-color:#000;solid-opacity:1"></path><path fill="#fde085" d="M18.893 1017.161a1.834 1.834 0 0 0-1.827 1.828v9.373h5.29v-9.373a1.834 1.834 0 0 0-1.827-1.828h-1.636zm8.578 0a1.834 1.834 0 0 0-1.826 1.828v9.373h5.289v-9.373a1.834 1.834 0 0 0-1.827-1.828h-1.636z" overflow="visible" style="isolation:auto;mix-blend-mode:normal;solid-color:#000;solid-opacity:1"></path></g></svg>